<mxfile host="app.diagrams.net" modified="2021-11-30T01:06:29.913Z" agent="5.0 (Macintosh; Intel Mac OS X 10_15_7) AppleWebKit/537.36 (KHTML, like Gecko) Chrome/96.0.4664.55 Safari/537.36" etag="OdC69itmQ6T31JehALjA" version="15.8.7" type="github">
  <diagram id="rTiVK4EpuTf02A9JKrwi" name="Page-1">
    <mxGraphModel dx="1042" dy="674" grid="1" gridSize="10" guides="1" tooltips="1" connect="1" arrows="1" fold="1" page="1" pageScale="1" pageWidth="850" pageHeight="1100" math="0" shadow="0">
      <root>
        <mxCell id="0" />
        <mxCell id="1" parent="0" />
        <mxCell id="Zag2WmijDfg3QIRqm3Ni-4" style="edgeStyle=orthogonalEdgeStyle;rounded=0;orthogonalLoop=1;jettySize=auto;html=1;entryX=0.5;entryY=0;entryDx=0;entryDy=0;" parent="1" source="Zag2WmijDfg3QIRqm3Ni-2" target="Zag2WmijDfg3QIRqm3Ni-3" edge="1">
          <mxGeometry relative="1" as="geometry" />
        </mxCell>
        <mxCell id="Zag2WmijDfg3QIRqm3Ni-2" value="start" style="rounded=1;whiteSpace=wrap;html=1;" parent="1" vertex="1">
          <mxGeometry x="365" y="160" width="120" height="60" as="geometry" />
        </mxCell>
        <mxCell id="Zag2WmijDfg3QIRqm3Ni-10" style="edgeStyle=orthogonalEdgeStyle;rounded=0;orthogonalLoop=1;jettySize=auto;html=1;entryX=0.5;entryY=0;entryDx=0;entryDy=0;" parent="1" source="Zag2WmijDfg3QIRqm3Ni-3" target="Zag2WmijDfg3QIRqm3Ni-9" edge="1">
          <mxGeometry relative="1" as="geometry" />
        </mxCell>
        <mxCell id="Zag2WmijDfg3QIRqm3Ni-13" value="Yes" style="edgeLabel;html=1;align=center;verticalAlign=middle;resizable=0;points=[];" parent="Zag2WmijDfg3QIRqm3Ni-10" vertex="1" connectable="0">
          <mxGeometry x="-0.7792" y="2" relative="1" as="geometry">
            <mxPoint as="offset" />
          </mxGeometry>
        </mxCell>
        <mxCell id="Zag2WmijDfg3QIRqm3Ni-12" style="edgeStyle=orthogonalEdgeStyle;rounded=0;orthogonalLoop=1;jettySize=auto;html=1;entryX=0.5;entryY=0;entryDx=0;entryDy=0;" parent="1" source="Zag2WmijDfg3QIRqm3Ni-3" target="Zag2WmijDfg3QIRqm3Ni-5" edge="1">
          <mxGeometry relative="1" as="geometry" />
        </mxCell>
        <mxCell id="Zag2WmijDfg3QIRqm3Ni-14" value="No" style="edgeLabel;html=1;align=center;verticalAlign=middle;resizable=0;points=[];" parent="Zag2WmijDfg3QIRqm3Ni-12" vertex="1" connectable="0">
          <mxGeometry x="-0.12" relative="1" as="geometry">
            <mxPoint as="offset" />
          </mxGeometry>
        </mxCell>
        <mxCell id="Zag2WmijDfg3QIRqm3Ni-3" value="Am I going to win？" style="rhombus;whiteSpace=wrap;html=1;" parent="1" vertex="1">
          <mxGeometry x="353" y="320" width="145" height="80" as="geometry" />
        </mxCell>
        <mxCell id="Zag2WmijDfg3QIRqm3Ni-15" style="edgeStyle=orthogonalEdgeStyle;rounded=0;orthogonalLoop=1;jettySize=auto;html=1;entryX=0.5;entryY=0;entryDx=0;entryDy=0;" parent="1" source="Zag2WmijDfg3QIRqm3Ni-5" target="Zag2WmijDfg3QIRqm3Ni-6" edge="1">
          <mxGeometry relative="1" as="geometry" />
        </mxCell>
        <mxCell id="Zag2WmijDfg3QIRqm3Ni-16" value="No" style="edgeLabel;html=1;align=center;verticalAlign=middle;resizable=0;points=[];" parent="Zag2WmijDfg3QIRqm3Ni-15" vertex="1" connectable="0">
          <mxGeometry x="-0.5143" y="1" relative="1" as="geometry">
            <mxPoint as="offset" />
          </mxGeometry>
        </mxCell>
        <mxCell id="Zag2WmijDfg3QIRqm3Ni-18" style="edgeStyle=orthogonalEdgeStyle;rounded=0;orthogonalLoop=1;jettySize=auto;html=1;entryX=0.5;entryY=0;entryDx=0;entryDy=0;" parent="1" source="Zag2WmijDfg3QIRqm3Ni-5" target="Zag2WmijDfg3QIRqm3Ni-17" edge="1">
          <mxGeometry relative="1" as="geometry" />
        </mxCell>
        <mxCell id="Zag2WmijDfg3QIRqm3Ni-5" value="Am I going to lose？" style="rhombus;whiteSpace=wrap;html=1;" parent="1" vertex="1">
          <mxGeometry x="353" y="450" width="145" height="80" as="geometry" />
        </mxCell>
        <mxCell id="Zag2WmijDfg3QIRqm3Ni-20" style="edgeStyle=orthogonalEdgeStyle;rounded=0;orthogonalLoop=1;jettySize=auto;html=1;entryX=0.5;entryY=0;entryDx=0;entryDy=0;" parent="1" source="Zag2WmijDfg3QIRqm3Ni-6" target="Zag2WmijDfg3QIRqm3Ni-7" edge="1">
          <mxGeometry relative="1" as="geometry" />
        </mxCell>
        <mxCell id="Zag2WmijDfg3QIRqm3Ni-6" value="Take legal action, (center, corder or other)" style="rounded=0;whiteSpace=wrap;html=1;" parent="1" vertex="1">
          <mxGeometry x="365.5" y="600" width="120" height="60" as="geometry" />
        </mxCell>
        <mxCell id="Zag2WmijDfg3QIRqm3Ni-7" value="end" style="rounded=1;whiteSpace=wrap;html=1;" parent="1" vertex="1">
          <mxGeometry x="365" y="720" width="120" height="60" as="geometry" />
        </mxCell>
        <mxCell id="Zag2WmijDfg3QIRqm3Ni-11" style="edgeStyle=orthogonalEdgeStyle;rounded=0;orthogonalLoop=1;jettySize=auto;html=1;entryX=1;entryY=0.5;entryDx=0;entryDy=0;exitX=0.5;exitY=1;exitDx=0;exitDy=0;" parent="1" source="Zag2WmijDfg3QIRqm3Ni-9" target="Zag2WmijDfg3QIRqm3Ni-7" edge="1">
          <mxGeometry relative="1" as="geometry" />
        </mxCell>
        <mxCell id="Zag2WmijDfg3QIRqm3Ni-9" value="Take Action to Win" style="rounded=0;whiteSpace=wrap;html=1;" parent="1" vertex="1">
          <mxGeometry x="720" y="540" width="120" height="60" as="geometry" />
        </mxCell>
        <mxCell id="Zag2WmijDfg3QIRqm3Ni-19" style="edgeStyle=orthogonalEdgeStyle;rounded=0;orthogonalLoop=1;jettySize=auto;html=1;exitX=0.5;exitY=1;exitDx=0;exitDy=0;entryX=1;entryY=0.5;entryDx=0;entryDy=0;" parent="1" source="Zag2WmijDfg3QIRqm3Ni-17" target="Zag2WmijDfg3QIRqm3Ni-7" edge="1">
          <mxGeometry relative="1" as="geometry" />
        </mxCell>
        <mxCell id="Zag2WmijDfg3QIRqm3Ni-17" value="Take Action not to lose" style="rounded=0;whiteSpace=wrap;html=1;" parent="1" vertex="1">
          <mxGeometry x="570" y="540" width="120" height="60" as="geometry" />
        </mxCell>
      </root>
    </mxGraphModel>
  </diagram>
</mxfile>
